<!DOCTYPE svg PUBLIC "-//W3C//DTD SVG 1.1//EN" "http://www.w3.org/Graphics/SVG/1.1/DTD/svg11.dtd">
<!-- Uploaded to: SVG Repo, www.svgrepo.com, Transformed by: SVG Repo Mixer Tools -->
<svg fill="#ffffff" height="800px" width="800px" version="1.1" id="Layer_1" xmlns="http://www.w3.org/2000/svg" xmlns:xlink="http://www.w3.org/1999/xlink" viewBox="0 0 24 24" xml:space="preserve">
<g id="SVGRepo_bgCarrier" stroke-width="0"/>
<g id="SVGRepo_tracerCarrier" stroke-linecap="round" stroke-linejoin="round"/>
<g id="SVGRepo_iconCarrier"> <polygon points="12,7 13,7 13,9 15,9 15,11 3,11 3,13 15,13 15,15 13,15 13,17 12,17 12,19 15,19 15,17 17,17 17,15 19,15 19,14 20,14 20,13 21,13 21,11 20,11 20,10 19,10 19,9 17,9 17,7 15,7 15,5 12,5 "/> </g>
</svg>