<svg xmlns="http://www.w3.org/2000/svg" xmlns:xlink="http://www.w3.org/1999/xlink" version="1.1" width="1000" height="1000" viewBox="0 0 1000 1000" xml:space="preserve">
<desc>Created with Fabric.js 3.5.0</desc>
<defs>
</defs>
<rect x="0" y="0" width="100%" height="100%" fill="rgba(255,255,255,0)"/>
<g transform="matrix(1.7756 0 0 1.7756 500.0057 500.0081)" id="604638">
<polygon style="stroke: none; stroke-width: 1; stroke-dasharray: none; stroke-linecap: butt; stroke-dashoffset: 0; stroke-linejoin: miter; stroke-miterlimit: 4; is-custom-font: none; font-file-url: none; fill: rgb(255,255,255); fill-rule: nonzero; opacity: 1;" vector-effect="non-scaling-stroke" points="111.304,77.913 111.304,44.522 144.696,44.522 144.696,11.13 178.087,11.13 178.087,-155.826 144.696,-155.826 144.696,-189.217 111.304,-189.217 111.304,-222.609 77.913,-222.609 77.913,-256 -77.913,-256 -77.913,-222.609 -111.304,-222.609 -111.304,-189.217 -144.696,-189.217 -144.696,-155.826 -178.087,-155.826 -178.087,11.13 -144.696,11.13 -144.696,44.522 -111.304,44.522 -111.304,77.913 -77.913,77.913 -77.913,111.304 -144.696,111.304 -144.696,144.696 -178.087,144.696 -178.087,256 178.087,256 178.087,144.696 144.696,144.696 144.696,111.304 77.913,111.304 77.913,77.913 "/>
</g>
</svg>